<svg width="90" height="32" viewBox="0 0 90 32" fill="none" xmlns="http://www.w3.org/2000/svg">
<path d="M1.02293 0H37.5857C37.9242 0.0990874 38.2188 0.31198 38.4209 0.60335C38.6229 0.894721 38.7201 1.24704 38.6964 1.60184C38.7189 6.19202 38.6964 10.7815 38.709 15.3745C38.7493 15.661 38.7315 15.9527 38.6568 16.2321C38.5822 16.5114 38.4521 16.7726 38.2744 16.9998C38.0792 17.1785 37.8488 17.3136 37.5982 17.3964C37.3477 17.4792 37.0827 17.5077 36.8204 17.4801C25.1313 17.4758 13.442 17.4737 1.75238 17.4737C1.37623 17.5184 0.996381 17.4298 0.677855 17.223C0.359329 17.0162 0.121937 16.7041 0.00631857 16.3402V1.01877C0.0970448 0.787542 0.234104 0.577711 0.408914 0.402407C0.583724 0.227102 0.79252 0.090108 1.02222 0H1.02293ZM3.72031 5.69042C3.3031 6.38583 3.03464 7.1616 2.93217 7.96792C2.8297 8.77423 2.89549 9.59327 3.12531 10.3724C3.35513 11.1515 3.7439 11.8736 4.26665 12.4921C4.7894 13.1106 5.43457 13.612 6.16073 13.964C6.91386 14.3086 7.72691 14.5002 8.55342 14.5276C9.37993 14.5551 10.2037 14.418 10.9777 14.1241C13.0839 13.3447 14.6769 11.6338 15.9898 9.85764C16.9327 8.60011 17.745 7.1527 19.1162 6.31529C20.3855 5.5466 21.9245 5.93273 23.3286 5.83496C23.9177 5.23134 24.5158 4.63551 25.1112 4.03472C25.5416 3.76763 25.4903 2.97202 24.9364 2.91392C23.667 2.86929 22.397 2.91394 21.1276 2.89481C19.5756 2.84066 18.0537 3.337 16.8267 4.29757C14.6587 5.99223 13.6526 8.74961 11.507 10.4613C11.035 10.9033 10.4672 11.228 9.84889 11.4095C9.23056 11.5911 8.57877 11.6244 7.94541 11.507C7.36916 11.36 6.85274 11.0352 6.46815 10.5779C6.08356 10.1206 5.84997 9.55356 5.79997 8.9559C5.74996 8.35824 5.88603 7.75974 6.18919 7.24384C6.49236 6.72794 6.9475 6.32037 7.49117 6.07796C8.58921 5.59761 9.82557 5.98019 10.9608 5.79457C11.5716 5.22142 12.1494 4.61285 12.7399 4.01844C12.8692 3.92569 12.9579 3.78603 12.9875 3.62875C13.0171 3.47147 12.9852 3.30875 12.8986 3.17465C12.7062 2.80766 12.259 2.91394 11.9157 2.90047C10.6463 2.92102 9.35869 2.87142 8.08302 2.92951C7.19252 3.01847 6.33465 3.31484 5.57698 3.7953C4.81931 4.27575 4.18253 4.92717 3.7168 5.69823L3.72031 5.69042ZM29.1095 2.95148C28.4875 3.5551 27.8732 4.16864 27.2799 4.79988C27.202 4.88105 27.1482 4.98258 27.1245 5.093C27.1008 5.20342 27.1081 5.31833 27.1458 5.42475C27.1834 5.53117 27.2497 5.62484 27.3373 5.6952C27.4249 5.76556 27.5303 5.80981 27.6415 5.82292C28.5394 5.88668 29.4395 5.80875 30.3396 5.85338C31.0519 5.93776 31.7067 6.28908 32.1744 6.83773C32.6421 7.38638 32.8885 8.09231 32.8648 8.81563C32.841 9.53894 32.5488 10.2268 32.0462 10.743C31.5435 11.2592 30.867 11.566 30.1507 11.6026C28.4657 11.6557 26.7807 11.6026 25.0958 11.6295C24.4765 12.2672 23.8264 12.885 23.2184 13.5304C23.1386 13.6149 23.0856 13.7216 23.0662 13.8367C23.0468 13.9518 23.0618 14.0702 23.1094 14.1766C23.1569 14.2831 23.2348 14.3728 23.3332 14.4344C23.4315 14.4959 23.5458 14.5265 23.6614 14.5222C25.7248 14.5364 27.7784 14.5222 29.8397 14.53C30.6061 14.5514 31.3693 14.4214 32.0863 14.1474C33.1207 13.7417 34.0177 13.0444 34.6703 12.1386C35.323 11.2328 35.7038 10.1568 35.7673 9.03875C35.8309 7.9207 35.5745 6.80779 35.0288 5.83265C34.4831 4.8575 33.671 4.06125 32.6894 3.53881C31.5905 2.97283 30.3451 2.763 29.1236 2.93801L29.1095 2.95148ZM41.5391 8.19558C41.6626 6.79525 42.2826 5.48688 43.2852 4.51077C44.2879 3.53466 45.6058 2.95635 46.9971 2.88205C49.276 2.85513 51.5564 2.86787 53.836 2.8707C53.9259 2.8527 54.0188 2.85613 54.1072 2.88067C54.1956 2.90522 54.2771 2.95021 54.3453 3.0121C54.4134 3.074 54.4663 3.15108 54.4998 3.23722C54.5333 3.32336 54.5464 3.4162 54.5381 3.50834C54.5493 6.20053 54.5381 8.89272 54.5381 11.5785C55.4978 11.5405 56.4201 11.1928 57.1695 10.5867C59.1802 9.06346 60.2179 6.64403 62.0243 4.91891C63.0736 3.87963 64.4135 3.19 65.8633 2.94298C66.717 2.79396 67.5927 2.83454 68.4294 3.06187C69.266 3.28921 70.0435 3.69784 70.7076 4.25932C71.6033 5.03146 72.2449 6.06042 72.5471 7.20939C72.8981 8.69084 72.7081 10.2503 72.0121 11.6019C73.3011 11.5714 74.5943 11.6579 75.8812 11.5537C76.5604 11.4795 77.1908 11.1626 77.6586 10.6603C78.1264 10.158 78.4007 9.50338 78.4319 8.81478C78.4635 7.53387 78.4319 6.23808 78.4396 4.95008C79.1678 4.16238 79.9592 3.43656 80.8056 2.78003C81.0106 2.94014 81.3673 3.05207 81.3455 3.3808C81.3869 5.24479 81.3455 7.11375 81.3595 8.98624C81.3266 9.9026 81.0865 10.7992 80.6575 11.6076H83.6539C84.279 11.6499 84.9051 11.5401 85.4793 11.2873C85.9399 11.0595 86.3312 10.7108 86.6121 10.2777C86.893 9.84462 87.0532 9.34321 87.0759 8.82611C87.106 7.5452 87.0759 6.26357 87.0899 4.99045C87.7758 4.33228 88.3979 3.6054 89.1168 2.98194C89.4264 2.7191 89.7402 2.98194 89.9958 3.17748V9.40706C89.9023 10.1753 89.6594 10.9173 89.2811 11.5906C88.9028 12.2639 88.3965 12.8552 87.7913 13.3306C86.695 14.1735 85.3422 14.6051 83.9649 14.5513C83.2903 14.5335 82.6127 14.5931 81.9416 14.5208C81.1924 13.976 80.6575 13.1804 79.9182 12.6186C79.3537 13.2237 78.6785 13.7131 77.9299 14.0596C76.5412 14.6972 74.9748 14.5718 73.4864 14.5499C73.1958 14.5739 73.0104 14.3302 72.8139 14.1545C72.3105 13.6388 71.8064 13.1216 71.2917 12.6171C70.4657 13.4859 69.4122 14.1001 68.2539 14.3883C67.2575 14.5528 66.2464 14.6065 65.2384 14.5484C64.5034 14.5321 63.7641 14.5888 63.0339 14.5215C62.9277 14.4999 62.8294 14.4493 62.7497 14.3754C62.6699 14.3014 62.6118 14.2068 62.5815 14.1018C62.5513 13.9968 62.5501 13.8855 62.5781 13.7799C62.6061 13.6743 62.6623 13.5784 62.7404 13.5027C63.3358 12.8651 63.934 12.2275 64.5862 11.6543C65.5382 11.4942 66.5211 11.7103 67.4746 11.5126C67.8639 11.4355 68.2328 11.2768 68.5577 11.0469C68.8825 10.817 69.1559 10.5209 69.3604 10.1778C69.5649 9.83471 69.6958 9.45217 69.7448 9.05486C69.7937 8.65755 69.7596 8.25429 69.6447 7.8711C69.4886 7.38096 69.2079 6.9407 68.8306 6.59424C68.4532 6.24777 67.9925 6.00723 67.4942 5.8966C66.9372 5.80309 66.3666 5.83731 65.8245 5.99675C65.2824 6.15619 64.7829 6.43675 64.3629 6.8176C63.2772 7.92181 62.2987 9.12841 61.4409 10.4209C60.1442 12.0723 58.5462 13.6239 56.499 14.2466C55.2724 14.6646 53.9673 14.4967 52.6979 14.5881C52.3076 14.6058 51.6982 14.564 51.6329 14.0674C51.536 11.3284 51.6933 8.5824 51.5627 5.84346C50.0883 5.85479 48.6203 5.83354 47.1494 5.84346C46.5438 5.87182 45.9633 6.09581 45.4935 6.48239C45.0236 6.86898 44.6893 7.3977 44.5398 7.99058C44.3904 8.58345 44.4337 9.20909 44.6634 9.77524C44.893 10.3414 45.2969 10.8181 45.8155 11.135C47.0357 11.9051 48.5374 11.4411 49.8798 11.631C49.9692 11.6764 50.0463 11.7432 50.1043 11.8255C50.1624 11.9079 50.1997 12.0032 50.213 12.1034C50.2262 12.2035 50.2151 12.3055 50.1805 12.4003C50.146 12.4951 50.089 12.58 50.0146 12.6476C49.408 13.2611 48.8211 13.9016 48.1787 14.4748C47.3114 14.6095 46.4252 14.5435 45.587 14.2818C44.7487 14.0202 43.9804 13.5696 43.3401 12.9643C42.6997 12.359 42.2041 11.6147 41.8906 10.7877C41.5771 9.96073 41.4541 9.07265 41.5307 8.19061L41.5391 8.19558ZM73.2716 17.8315C73.3018 17.4886 73.676 17.3512 73.9737 17.3908C74.6758 17.439 75.4277 17.2548 76.0926 17.5587C76.2236 18.2639 76.2551 18.9842 76.1859 19.6983C76.1892 19.7822 76.1754 19.8659 76.1454 19.9442C76.1153 20.0225 76.0696 20.0937 76.0112 20.1535C75.9528 20.2133 75.8828 20.2603 75.8056 20.2917C75.7284 20.3231 75.6457 20.3381 75.5625 20.3359C74.9755 20.3359 74.3879 20.3586 73.8024 20.3232C73.5468 20.304 73.2407 20.1213 73.2611 19.8315C73.2435 19.162 73.2309 18.4897 73.2611 17.8216L73.2716 17.8315ZM76.6718 18.8644C76.7195 18.355 76.5433 17.6877 77.067 17.3766C77.7986 17.3894 78.5316 17.3908 79.2638 17.3766C79.4225 17.5368 79.638 17.6742 79.6366 17.9257C79.6654 18.5584 79.6682 19.1939 79.6366 19.8265C79.5812 20.36 78.9619 20.3614 78.5625 20.3487C78.0132 20.4006 77.4592 20.3572 76.9245 20.2205C76.5482 19.8825 76.6591 19.3207 76.6704 18.8701L76.6718 18.8644ZM0.00351047 19.964C3.23307 20.0348 6.46262 19.9782 9.68445 19.998C18.8321 19.9904 27.9804 19.9904 37.1294 19.998C39.7271 19.9512 42.3205 20.0816 44.9154 19.9902C52.7445 19.9902 60.5741 19.9902 68.4041 19.9902C69.1141 19.9569 69.8257 19.9913 70.5293 20.0929C70.4657 20.1695 70.3866 20.2315 70.2974 20.2749C70.2082 20.3183 70.1109 20.3419 70.0119 20.3444C46.6757 20.3638 23.3396 20.3638 0.00351047 20.3444V19.9583V19.964ZM3.56164 23.8117C3.92672 23.4433 4.24125 22.9615 4.77413 22.8383C4.86118 25.274 4.78676 27.7147 4.81414 30.1525C3.79192 30.2021 2.76829 30.1766 1.74607 30.183C1.33832 30.1783 0.944085 30.0348 0.627192 29.7759C0.310299 29.5169 0.0893066 29.1576 0 28.7561V26.7873C0.0756698 26.4059 0.2708 26.0591 0.55661 25.7981C0.842421 25.5371 1.20378 25.3757 1.5874 25.3377C2.24735 25.3044 2.90941 25.3477 3.56936 25.3044V23.8259L3.56164 23.8117ZM2.54573 26.6031C2.11396 26.6449 1.3522 26.4203 1.27638 27.0544C1.19947 27.6154 1.22853 28.1861 1.36203 28.7363C1.9939 29.1656 2.84763 28.8468 3.56936 28.9297C3.56936 27.9817 3.58059 27.0338 3.55813 26.0852C3.26466 26.3395 2.97751 26.6973 2.54082 26.6024L2.54573 26.6031ZM8.02545 25.3469C7.96366 24.7802 8.55692 24.5074 8.87285 24.1362C9.61846 24.1475 10.3662 24.1057 11.1125 24.1503C11.5343 24.2171 11.9189 24.433 12.1975 24.7595C12.4761 25.0861 12.6305 25.502 12.6332 25.9328C12.6332 27.3455 12.6521 28.7596 12.6156 30.1723C11.5822 30.2255 10.5522 30.1886 9.51315 30.1964C9.14678 30.1893 8.79167 30.0674 8.49705 29.8475C8.20243 29.6277 7.9829 29.3208 7.86888 28.9694C7.78586 28.7235 7.75546 28.4626 7.77967 28.204C7.80389 27.9454 7.88217 27.695 8.00936 27.4692C8.13654 27.2433 8.30974 27.0473 8.51753 26.894C8.72531 26.7406 8.96295 26.6335 9.21477 26.5797C9.93861 26.4918 10.6702 26.562 11.3982 26.5379C11.4267 26.3483 11.4171 26.1549 11.3699 25.9691C11.3228 25.7834 11.239 25.6091 11.1237 25.4568C10.1015 25.2966 9.06031 25.4808 8.02545 25.3462V25.3469ZM10.4827 27.7968C10.0285 27.845 9.42398 27.6367 9.11437 28.0802C9.08028 28.156 9.06175 28.2379 9.05991 28.3211C9.05807 28.4042 9.07296 28.4869 9.10367 28.5641C9.13438 28.6413 9.18027 28.7115 9.23858 28.7703C9.2969 28.8291 9.36641 28.8754 9.44294 28.9063C10.0924 28.9722 10.746 28.9063 11.3968 28.9304V27.2166C11.116 27.4646 10.8983 27.8797 10.4841 27.7933L10.4827 27.7968ZM15.5931 24.9743C15.9645 24.681 16.2517 24.0249 16.793 24.1496C17.0085 25.2704 16.6456 26.4706 16.9896 27.5446C17.6999 27.7364 18.4398 27.7907 19.1702 27.7047V25.009C19.4684 24.6648 19.8043 24.3559 20.1714 24.088C20.4887 24.178 20.4986 24.552 20.5049 24.8213C20.4178 26.4833 20.5491 28.1511 20.4269 29.8132C20.3759 30.1806 20.2207 30.5254 19.9799 30.8058C19.7391 31.0863 19.423 31.2904 19.0698 31.3937H15.7083C15.9306 30.9009 16.2679 30.4697 16.6912 30.1369C17.3736 30.1178 18.0609 30.183 18.7399 30.105C19.2446 30.02 19.14 29.3895 19.1808 29.0147C18.5489 29.0034 17.917 29.0352 17.2887 29.0048C16.8347 28.9794 16.4069 28.7824 16.0904 28.453C15.774 28.1236 15.5922 27.6859 15.5812 27.2272C15.5622 26.4791 15.591 25.7316 15.5812 24.9849L15.5931 24.9743ZM29.4121 24.1999C29.8049 24.1187 30.2084 24.1051 30.6057 24.1595C30.7117 25.5014 30.6344 26.8517 30.6562 28.1978C30.7028 28.8689 30.6703 29.5431 30.5593 30.2063H29.4486C29.3397 29.2759 29.3078 28.338 29.3532 27.4022C29.3202 26.334 29.3436 25.2649 29.4234 24.1992L29.4121 24.1999ZM33.5754 25.3073C33.5424 24.766 34.1322 24.5067 34.4264 24.1347C35.2323 24.1447 36.0411 24.1184 36.845 24.1461C37.2851 24.1935 37.6918 24.4051 37.9854 24.7392C38.279 25.0734 38.4384 25.5061 38.4324 25.9527V29.6367C38.4085 29.8351 38.4942 30.2085 38.1832 30.1957C37.8722 30.183 37.4502 30.3176 37.1925 30.0866C37.1181 28.7044 37.2024 27.3172 37.1574 25.9336C37.1701 25.6962 36.956 25.5552 36.8275 25.3923C36.1591 25.405 35.4935 25.3923 34.8244 25.3923C34.8069 26.9828 34.8244 28.5726 34.8146 30.1631C34.4094 30.2007 34.0018 30.2055 33.5958 30.1773C33.5354 28.5535 33.5958 26.9275 33.567 25.3037L33.5754 25.3073ZM41.3102 25.038C41.4636 24.759 41.6891 24.5272 41.9627 24.3673C42.2363 24.2073 42.5478 24.1252 42.8639 24.1298C43.7064 24.1475 44.5489 24.1029 45.3914 24.1588C45.602 24.7207 44.8817 25.0012 44.5981 25.3873C43.8693 25.4964 43.0107 25.1472 42.3858 25.6452C42.4188 25.9286 42.3156 26.3402 42.6603 26.4713C43.3624 26.6732 44.1347 26.3848 44.8298 26.6718C45.1535 26.8166 45.4295 27.0518 45.6252 27.3497C45.8209 27.6475 45.9281 27.9957 45.9341 28.353C45.9368 28.5942 45.8921 28.8335 45.8026 29.0572C45.7131 29.2808 45.5806 29.4843 45.4127 29.656C45.2448 29.8277 45.0448 29.9641 44.8244 30.0573C44.604 30.1506 44.3674 30.1988 44.1284 30.1993C43.2157 30.1766 42.303 30.2375 41.3903 30.1674L41.3046 29.9655C41.4745 29.5404 41.9014 29.2704 42.2047 28.9375C42.9202 28.9694 43.637 28.9523 44.3502 28.8865C44.4489 28.8375 44.5313 28.7606 44.5874 28.6652C44.6435 28.5697 44.6709 28.4599 44.6662 28.3491C44.6615 28.2382 44.625 28.1311 44.561 28.0408C44.4971 27.9506 44.4084 27.8811 44.306 27.8408C43.5218 27.6948 42.6393 28.0009 41.9253 27.5205C41.524 27.2685 41.2353 26.8693 41.1198 26.4068C41.0043 25.9443 41.071 25.4547 41.306 25.0409L41.3102 25.038ZM48.5936 25.0076C48.9109 24.7093 49.316 23.9343 49.7794 24.2283C49.8777 25.6006 49.7696 26.9828 49.8299 28.3587C49.8304 28.482 49.8686 28.6022 49.9393 28.7028C50.0101 28.8034 50.1099 28.8794 50.2252 28.9205C50.8697 28.975 51.5184 28.9283 52.1665 28.9396C52.1665 27.6282 52.1566 26.3183 52.1665 25.0062C52.4813 24.6653 52.8196 24.3474 53.1789 24.0547C53.4962 24.2672 53.3895 24.6696 53.4119 24.9934C53.3754 26.7136 53.4646 28.4401 53.3677 30.1567C52.3539 30.2595 51.3254 30.1794 50.3045 30.2C49.9702 30.199 49.6434 30.0997 49.3641 29.9142C49.0848 29.7287 48.8651 29.4652 48.7319 29.1557C48.539 28.5348 48.4769 27.8801 48.5494 27.2336C48.576 26.4918 48.4904 25.7409 48.5894 25.0041L48.5936 25.0076ZM56.374 25.7614C56.4078 25.3223 56.6034 24.9119 56.9222 24.6111C57.2409 24.3103 57.6598 24.1409 58.0962 24.1362C58.7281 24.1234 59.3656 24.1362 60.0009 24.144C60.0789 24.7207 59.4835 24.9863 59.1851 25.3774C58.6937 25.4688 57.9825 25.1755 57.6855 25.7118C57.5268 27.1996 57.7873 28.7228 57.5521 30.1957C57.1597 30.2261 56.765 30.2023 56.3789 30.1249C56.393 28.6711 56.3347 27.2166 56.3866 25.7621L56.374 25.7614ZM62.0636 24.9984C62.3196 24.6955 62.5937 24.4087 62.8844 24.1397C63.6194 24.1397 64.3587 24.117 65.0903 24.1475C65.5191 24.2068 65.9123 24.4205 66.1973 24.7493C66.4823 25.078 66.6399 25.4996 66.6412 25.9364C66.6665 27.1181 66.6412 28.2998 66.6538 29.4787C66.6737 29.7115 66.6418 29.9458 66.5604 30.1646C65.5368 30.2397 64.5069 30.1823 63.4818 30.1936C63.0173 30.1679 62.5803 29.9628 62.2616 29.6207C61.943 29.2786 61.767 28.8259 61.7702 28.3564C61.7735 27.8869 61.9557 27.4367 62.2791 27.0992C62.6025 26.7616 63.0422 26.5627 63.5071 26.5435C64.139 26.5294 64.7709 26.5435 65.3992 26.5435C65.3908 26.2176 65.3584 25.8927 65.3023 25.5715C65.091 25.4539 64.8535 25.3922 64.6122 25.3923H62.1458C62.0952 25.269 61.9317 25.128 62.065 24.9934L62.0636 24.9984ZM64.8123 27.7926C64.3242 27.7617 63.8342 27.7873 63.352 27.8691C63.2547 27.919 63.1739 27.9965 63.1195 28.0919C63.0652 28.1874 63.0396 28.2969 63.0458 28.4068C63.0521 28.5168 63.0899 28.6225 63.1548 28.7111C63.2196 28.7996 63.3086 28.8672 63.4109 28.9056C64.0646 28.9764 64.7266 28.9155 65.3838 28.941C65.3915 28.353 65.3838 27.7671 65.3838 27.179C65.1949 27.3838 65.0061 27.5871 64.8221 27.7926H64.8123ZM69.5499 25.0041C69.842 24.7058 70.1389 24.4096 70.4401 24.1213C71.1921 24.1355 71.9447 24.1213 72.6966 24.1213C73.0862 24.1274 73.4627 24.2649 73.7659 24.512C74.0691 24.759 74.2816 25.1013 74.3697 25.4844C74.4776 26.5436 74.4952 27.6102 74.4223 28.6725C74.4737 29.1738 74.44 29.6803 74.3226 30.1702C73.9685 30.2008 73.6128 30.2098 73.2576 30.1971C73.1421 29.1026 73.1093 28.0009 73.1593 26.9013C73.1003 26.4111 73.3495 25.7451 72.8532 25.4249C72.1897 25.3462 71.5192 25.4121 70.8551 25.3894C70.8361 26.7504 70.8452 28.1121 70.8551 29.4731C70.8566 29.7194 70.8244 29.9647 70.7596 30.2021L69.6187 30.1879C69.4783 28.4678 69.5899 26.7348 69.5555 25.0104L69.5499 25.0041ZM77.489 25.3165C77.6197 24.9604 77.8575 24.6546 78.1691 24.4418C78.4807 24.229 78.8505 24.1199 79.2266 24.1298C80.2299 24.1425 81.2325 24.1135 82.2421 24.1525C82.2722 24.7192 81.6642 24.9835 81.3645 25.3838C80.6027 25.4157 79.8374 25.3533 79.0778 25.4128C78.9313 25.4555 78.8059 25.5517 78.7261 25.6828C78.6462 25.8138 78.6177 25.9702 78.646 26.1213C78.646 26.8659 78.6334 27.6091 78.646 28.3636C78.6387 28.4932 78.6775 28.6212 78.7556 28.7243C78.8336 28.8275 78.9457 28.8991 79.0715 28.9261C80.0839 28.997 81.1033 28.8992 82.1171 28.9665C82.4772 29.4469 81.6502 29.833 81.3932 30.2042C80.6153 30.2042 79.836 30.2205 79.0588 30.2042C78.6852 30.1862 78.3272 30.0477 78.0375 29.8089C77.7478 29.5701 77.5417 29.2438 77.4497 28.878C77.3831 28.2301 77.3634 27.5783 77.3907 26.9276C77.3499 26.3917 77.3841 25.8526 77.4925 25.3264L77.489 25.3165ZM85.1992 25.9541C85.1849 25.4981 85.3465 25.0544 85.6499 24.7162C85.9533 24.3781 86.3749 24.1719 86.8259 24.1411C87.4129 24.1078 88.0015 24.1154 88.5874 24.1638C88.9236 24.2335 89.2338 24.3964 89.4834 24.6342C89.7329 24.872 89.9118 25.1752 90 25.5099V26.4833C89.8849 26.799 89.6944 27.0811 89.4453 27.3046C89.1961 27.5281 88.8961 27.686 88.572 27.7643C87.858 27.8408 87.144 27.7784 86.4215 27.8039C86.4377 28.195 86.3583 28.8206 86.8673 28.9169C87.8194 28.9779 88.7721 28.9091 89.7241 28.9424L89.8385 29.3045C89.5465 29.5992 89.2549 29.8949 88.9637 30.1915C88.2525 30.1915 87.5434 30.2156 86.8336 30.1915C86.4022 30.1705 85.9944 29.9866 85.6911 29.6762C85.3879 29.3657 85.2116 28.9516 85.1971 28.5159C85.1795 27.6594 85.1971 26.8022 85.1971 25.9442L85.1992 25.9541ZM86.4496 27.104C86.6335 26.9148 86.821 26.7277 87.0063 26.5372C87.5589 26.4585 88.3403 26.7773 88.7012 26.2169C88.9265 25.9066 88.631 25.6183 88.4379 25.3951C87.9127 25.4093 87.3848 25.3661 86.8617 25.4114C86.1933 25.6948 86.517 26.5513 86.4489 27.1117L86.4496 27.104Z" fill="white"/>
</svg>
